<svg width="130" height="88" viewBox="0 0 130 88" fill="none" xmlns="http://www.w3.org/2000/svg">
<path d="M1.39719 66.224V11.984H11.3812V66.224H1.39719ZM10.1684 66.224V11.984H34.4084V66.224H10.1684ZM29.7044 30.272H32.5844V24.8H17.8004V30.272H23.2724V47.168C23.2724 48.128 22.9844 48.928 22.4084 49.568C21.8644 50.208 20.9364 50.528 19.6244 50.528C18.8564 50.528 18.0884 50.32 17.3204 49.904C16.5844 49.488 15.9444 48.576 15.4004 47.168L10.8884 50.576C11.5604 52.144 12.6164 53.52 14.0564 54.704C15.5284 55.888 17.5924 56.48 20.2484 56.48C23.0644 56.48 25.3364 55.712 27.0644 54.176C28.8244 52.608 29.7044 50.256 29.7044 47.12V30.272ZM33.2253 66.224V11.984H43.2093V66.224H33.2253ZM41.9006 11.984H76.6526V66.224H41.9006V11.984ZM63.4046 42.992H65.7566C65.3086 44.944 64.5726 46.56 63.5486 47.84C60.8926 45.984 58.6686 43.664 56.8766 40.88C59.8846 39.376 62.1566 37.968 63.6926 36.656C65.2286 35.344 65.9966 33.616 65.9966 31.472C65.9966 29.2 65.1966 27.44 63.5966 26.192C61.9966 24.944 59.8846 24.32 57.2606 24.32C53.8366 24.32 51.4046 25.264 49.9646 27.152C48.5566 29.008 47.8526 31.056 47.8526 33.296C47.8526 35.6 48.4926 38.128 49.7726 40.88C48.2366 41.68 46.8126 42.656 45.5006 43.808C44.2206 44.928 43.5806 46.56 43.5806 48.704C43.5806 51.456 44.6526 53.44 46.7966 54.656C48.9726 55.872 51.1966 56.48 53.4686 56.48C54.9086 56.48 56.3326 56.272 57.7406 55.856C59.1486 55.44 60.5086 54.864 61.8206 54.128C64.5406 55.696 67.2126 56.48 69.8366 56.48C70.7326 56.48 71.6446 56.384 72.5726 56.192C73.5006 56 74.3806 55.68 75.2126 55.232L73.9166 49.952C72.9566 50.368 71.9326 50.576 70.8446 50.576C69.7566 50.576 68.6206 50.352 67.4366 49.904C69.6446 47.76 71.2926 45.456 72.3806 42.992H75.4526V37.52H63.4046V42.992ZM54.0926 32.768C54.0926 32.224 54.2366 31.472 54.5246 30.512C54.8446 29.52 55.7086 29.024 57.1166 29.024C58.3006 29.024 59.0206 29.376 59.2766 30.08C59.5326 30.752 59.6606 31.312 59.6606 31.76C59.6606 32.816 59.3406 33.84 58.7006 34.832C58.0606 35.824 56.9246 36.848 55.2926 37.904C54.4926 36.112 54.0926 34.4 54.0926 32.768ZM55.2446 51.248C53.6766 51.248 52.3646 50.992 51.3086 50.48C50.2526 49.936 49.7246 48.928 49.7246 47.456C49.7246 46.048 50.2846 44.848 51.4046 43.856C53.0366 46.48 55.1006 48.896 57.5966 51.104C56.7966 51.2 56.0126 51.248 55.2446 51.248ZM75.4597 66.224V11.984H85.4437V66.224H75.4597ZM84.2309 66.224V11.984H119.367V66.224H84.2309ZM117.735 40.352C117.735 35.968 116.327 32.208 113.511 29.072C110.727 25.904 106.839 24.32 101.847 24.32C96.9509 24.32 93.0629 25.872 90.1829 28.976C87.3029 32.08 85.8629 35.904 85.8629 40.448C85.8629 44.8 87.2229 48.56 89.9429 51.728C92.6629 54.896 96.5669 56.48 101.655 56.48C106.711 56.48 110.647 54.896 113.463 51.728C116.311 48.56 117.735 44.768 117.735 40.352ZM110.775 40.544C110.775 43.584 110.071 46.064 108.663 47.984C107.255 49.872 105.031 50.816 101.991 50.816C98.6949 50.816 96.3429 49.776 94.9349 47.696C93.5269 45.616 92.8229 43.152 92.8229 40.304C92.8229 37.36 93.5429 34.912 94.9829 32.96C96.4229 30.976 98.6949 29.984 101.799 29.984C104.711 29.984 106.935 30.912 108.471 32.768C110.007 34.624 110.775 37.216 110.775 40.544ZM118.163 66.224V11.984H128.147V66.224H118.163Z" fill="white"/>
<path d="M5.81466 74.395V76.67H8.86966V78.113H5.81466V80.518H9.25966V82H3.99466V72.913H9.25966V74.395H5.81466ZM13.9166 80.323L15.7366 74.798H17.6736L15.0086 82H12.7986L10.1466 74.798H12.0966L13.9166 80.323ZM25.3908 78.243C25.3908 78.503 25.3735 78.737 25.3388 78.945H20.0738C20.1172 79.465 20.2992 79.8723 20.6198 80.167C20.9405 80.4617 21.3348 80.609 21.8028 80.609C22.4788 80.609 22.9598 80.3187 23.2458 79.738H25.2088C25.0008 80.4313 24.6022 81.0033 24.0128 81.454C23.4235 81.896 22.6998 82.117 21.8418 82.117C21.1485 82.117 20.5245 81.9653 19.9698 81.662C19.4238 81.35 18.9948 80.9123 18.6828 80.349C18.3795 79.7857 18.2278 79.1357 18.2278 78.399C18.2278 77.6537 18.3795 76.9993 18.6828 76.436C18.9862 75.8727 19.4108 75.4393 19.9568 75.136C20.5028 74.8327 21.1312 74.681 21.8418 74.681C22.5265 74.681 23.1375 74.8283 23.6748 75.123C24.2208 75.4177 24.6412 75.838 24.9358 76.384C25.2392 76.9213 25.3908 77.541 25.3908 78.243ZM23.5058 77.723C23.4972 77.255 23.3282 76.8823 22.9988 76.605C22.6695 76.319 22.2665 76.176 21.7898 76.176C21.3392 76.176 20.9578 76.3147 20.6458 76.592C20.3425 76.8607 20.1562 77.2377 20.0868 77.723H23.5058ZM30.7103 74.694C31.5683 74.694 32.2616 74.967 32.7903 75.513C33.3189 76.0503 33.5833 76.8043 33.5833 77.775V82H31.7633V78.022C31.7633 77.45 31.6203 77.0123 31.3343 76.709C31.0483 76.397 30.6583 76.241 30.1643 76.241C29.6616 76.241 29.2629 76.397 28.9683 76.709C28.6823 77.0123 28.5393 77.45 28.5393 78.022V82H26.7193V74.798H28.5393V75.695C28.7819 75.383 29.0896 75.1403 29.4623 74.967C29.8436 74.785 30.2596 74.694 30.7103 74.694ZM37.433 76.293V79.777C37.433 80.0197 37.4893 80.1973 37.602 80.31C37.7233 80.414 37.9227 80.466 38.2 80.466H39.045V82H37.901C36.367 82 35.6 81.2547 35.6 79.764V76.293H34.742V74.798H35.6V73.017H37.433V74.798H39.045V76.293H37.433ZM43.552 82.117C42.8587 82.117 42.2347 81.9653 41.68 81.662C41.1254 81.35 40.6877 80.9123 40.367 80.349C40.055 79.7857 39.899 79.1357 39.899 78.399C39.899 77.6623 40.0594 77.0123 40.38 76.449C40.7094 75.8857 41.1557 75.4523 41.719 75.149C42.2824 74.837 42.9107 74.681 43.604 74.681C44.2974 74.681 44.9257 74.837 45.489 75.149C46.0524 75.4523 46.4944 75.8857 46.815 76.449C47.1444 77.0123 47.309 77.6623 47.309 78.399C47.309 79.1357 47.14 79.7857 46.802 80.349C46.4727 80.9123 46.022 81.35 45.45 81.662C44.8867 81.9653 44.254 82.117 43.552 82.117ZM43.552 80.531C43.8814 80.531 44.189 80.453 44.475 80.297C44.7697 80.1323 45.0037 79.8897 45.177 79.569C45.3504 79.2483 45.437 78.8583 45.437 78.399C45.437 77.7143 45.255 77.19 44.891 76.826C44.5357 76.4533 44.098 76.267 43.578 76.267C43.058 76.267 42.6204 76.4533 42.265 76.826C41.9184 77.19 41.745 77.7143 41.745 78.399C41.745 79.0837 41.914 79.6123 42.252 79.985C42.5987 80.349 43.032 80.531 43.552 80.531ZM51.4001 82.117C50.8107 82.117 50.2821 82.013 49.8141 81.805C49.3461 81.5883 48.9734 81.298 48.6961 80.934C48.4274 80.57 48.2801 80.167 48.2541 79.725H50.0871C50.1217 80.0023 50.2561 80.232 50.4901 80.414C50.7327 80.596 51.0317 80.687 51.3871 80.687C51.7337 80.687 52.0024 80.6177 52.1931 80.479C52.3924 80.3403 52.4921 80.1627 52.4921 79.946C52.4921 79.712 52.3707 79.5387 52.1281 79.426C51.8941 79.3047 51.5171 79.1747 50.9971 79.036C50.4597 78.906 50.0177 78.7717 49.6711 78.633C49.3331 78.4943 49.0384 78.282 48.7871 77.996C48.5444 77.71 48.4231 77.3243 48.4231 76.839C48.4231 76.4403 48.5357 76.0763 48.7611 75.747C48.9951 75.4177 49.3244 75.1577 49.7491 74.967C50.1824 74.7763 50.6894 74.681 51.2701 74.681C52.1281 74.681 52.8127 74.8977 53.3241 75.331C53.8354 75.7557 54.1171 76.332 54.1691 77.06H52.4271C52.4011 76.774 52.2797 76.5487 52.0631 76.384C51.8551 76.2107 51.5734 76.124 51.2181 76.124C50.8887 76.124 50.6331 76.1847 50.4511 76.306C50.2777 76.4273 50.1911 76.5963 50.1911 76.813C50.1911 77.0557 50.3124 77.242 50.5551 77.372C50.7977 77.4933 51.1747 77.619 51.6861 77.749C52.2061 77.879 52.6351 78.0133 52.9731 78.152C53.3111 78.2907 53.6014 78.5073 53.8441 78.802C54.0954 79.088 54.2254 79.4693 54.2341 79.946C54.2341 80.362 54.1171 80.7347 53.8831 81.064C53.6577 81.3933 53.3284 81.6533 52.8951 81.844C52.4704 82.026 51.9721 82.117 51.4001 82.117ZM61.9977 72.926C62.951 72.926 63.7874 73.1123 64.5067 73.485C65.2347 73.8577 65.7937 74.3907 66.1837 75.084C66.5824 75.7687 66.7817 76.566 66.7817 77.476C66.7817 78.386 66.5824 79.1833 66.1837 79.868C65.7937 80.544 65.2347 81.0683 64.5067 81.441C63.7874 81.8137 62.951 82 61.9977 82H58.8257V72.926H61.9977ZM61.9327 80.453C62.886 80.453 63.6227 80.193 64.1427 79.673C64.6627 79.153 64.9227 78.4207 64.9227 77.476C64.9227 76.5313 64.6627 75.7947 64.1427 75.266C63.6227 74.7287 62.886 74.46 61.9327 74.46H60.6457V80.453H61.9327ZM74.8391 78.243C74.8391 78.503 74.8217 78.737 74.7871 78.945H69.5221C69.5654 79.465 69.7474 79.8723 70.0681 80.167C70.3887 80.4617 70.7831 80.609 71.2511 80.609C71.9271 80.609 72.4081 80.3187 72.6941 79.738H74.6571C74.4491 80.4313 74.0504 81.0033 73.4611 81.454C72.8717 81.896 72.1481 82.117 71.2901 82.117C70.5967 82.117 69.9727 81.9653 69.4181 81.662C68.8721 81.35 68.4431 80.9123 68.1311 80.349C67.8277 79.7857 67.6761 79.1357 67.6761 78.399C67.6761 77.6537 67.8277 76.9993 68.1311 76.436C68.4344 75.8727 68.8591 75.4393 69.4051 75.136C69.9511 74.8327 70.5794 74.681 71.2901 74.681C71.9747 74.681 72.5857 74.8283 73.1231 75.123C73.6691 75.4177 74.0894 75.838 74.3841 76.384C74.6874 76.9213 74.8391 77.541 74.8391 78.243ZM72.9541 77.723C72.9454 77.255 72.7764 76.8823 72.4471 76.605C72.1177 76.319 71.7147 76.176 71.2381 76.176C70.7874 76.176 70.4061 76.3147 70.0941 76.592C69.7907 76.8607 69.6044 77.2377 69.5351 77.723H72.9541ZM77.9875 75.838C78.2215 75.5087 78.5422 75.2357 78.9495 75.019C79.3655 74.7937 79.8378 74.681 80.3665 74.681C80.9818 74.681 81.5365 74.8327 82.0305 75.136C82.5332 75.4393 82.9275 75.8727 83.2135 76.436C83.5082 76.9907 83.6555 77.6363 83.6555 78.373C83.6555 79.1097 83.5082 79.764 83.2135 80.336C82.9275 80.8993 82.5332 81.337 82.0305 81.649C81.5365 81.961 80.9818 82.117 80.3665 82.117C79.8378 82.117 79.3698 82.0087 78.9625 81.792C78.5638 81.5753 78.2388 81.3023 77.9875 80.973V85.432H76.1675V74.798H77.9875V75.838ZM81.7965 78.373C81.7965 77.9397 81.7055 77.567 81.5235 77.255C81.3502 76.9343 81.1162 76.6917 80.8215 76.527C80.5355 76.3623 80.2235 76.28 79.8855 76.28C79.5562 76.28 79.2442 76.3667 78.9495 76.54C78.6635 76.7047 78.4295 76.9473 78.2475 77.268C78.0742 77.5887 77.9875 77.9657 77.9875 78.399C77.9875 78.8323 78.0742 79.2093 78.2475 79.53C78.4295 79.8507 78.6635 80.0977 78.9495 80.271C79.2442 80.4357 79.5562 80.518 79.8855 80.518C80.2235 80.518 80.5355 80.4313 80.8215 80.258C81.1162 80.0847 81.3502 79.8377 81.5235 79.517C81.7055 79.1963 81.7965 78.815 81.7965 78.373ZM88.1761 82.117C87.4827 82.117 86.8587 81.9653 86.3041 81.662C85.7494 81.35 85.3117 80.9123 84.9911 80.349C84.6791 79.7857 84.5231 79.1357 84.5231 78.399C84.5231 77.6623 84.6834 77.0123 85.0041 76.449C85.3334 75.8857 85.7797 75.4523 86.3431 75.149C86.9064 74.837 87.5347 74.681 88.2281 74.681C88.9214 74.681 89.5497 74.837 90.1131 75.149C90.6764 75.4523 91.1184 75.8857 91.4391 76.449C91.7684 77.0123 91.9331 77.6623 91.9331 78.399C91.9331 79.1357 91.7641 79.7857 91.4261 80.349C91.0967 80.9123 90.6461 81.35 90.0741 81.662C89.5107 81.9653 88.8781 82.117 88.1761 82.117ZM88.1761 80.531C88.5054 80.531 88.8131 80.453 89.0991 80.297C89.3937 80.1323 89.6277 79.8897 89.8011 79.569C89.9744 79.2483 90.0611 78.8583 90.0611 78.399C90.0611 77.7143 89.8791 77.19 89.5151 76.826C89.1597 76.4533 88.7221 76.267 88.2021 76.267C87.6821 76.267 87.2444 76.4533 86.8891 76.826C86.5424 77.19 86.3691 77.7143 86.3691 78.399C86.3691 79.0837 86.5381 79.6123 86.8761 79.985C87.2227 80.349 87.6561 80.531 88.1761 80.531ZM95.0881 75.916C95.3221 75.5347 95.6254 75.2357 95.9981 75.019C96.3794 74.8023 96.8128 74.694 97.2981 74.694V76.605H96.8171C96.2451 76.605 95.8118 76.7393 95.5171 77.008C95.2311 77.2767 95.0881 77.7447 95.0881 78.412V82H93.2681V74.798H95.0881V75.916ZM100.643 76.293V79.777C100.643 80.0197 100.699 80.1973 100.812 80.31C100.933 80.414 101.133 80.466 101.41 80.466H102.255V82H101.111C99.577 82 98.81 81.2547 98.81 79.764V76.293H97.952V74.798H98.81V73.017H100.643V74.798H102.255V76.293H100.643ZM104.487 73.94C104.166 73.94 103.898 73.8403 103.681 73.641C103.473 73.433 103.369 73.1773 103.369 72.874C103.369 72.5707 103.473 72.3193 103.681 72.12C103.898 71.912 104.166 71.808 104.487 71.808C104.808 71.808 105.072 71.912 105.28 72.12C105.497 72.3193 105.605 72.5707 105.605 72.874C105.605 73.1773 105.497 73.433 105.28 73.641C105.072 73.8403 104.808 73.94 104.487 73.94ZM105.384 74.798V82H103.564V74.798H105.384ZM110.185 80.323L112.005 74.798H113.942L111.277 82H109.067L106.415 74.798H108.365L110.185 80.323ZM118.162 82.117C117.469 82.117 116.845 81.9653 116.29 81.662C115.736 81.35 115.298 80.9123 114.977 80.349C114.665 79.7857 114.509 79.1357 114.509 78.399C114.509 77.6623 114.67 77.0123 114.99 76.449C115.32 75.8857 115.766 75.4523 116.329 75.149C116.893 74.837 117.521 74.681 118.214 74.681C118.908 74.681 119.536 74.837 120.099 75.149C120.663 75.4523 121.105 75.8857 121.425 76.449C121.755 77.0123 121.919 77.6623 121.919 78.399C121.919 79.1357 121.75 79.7857 121.412 80.349C121.083 80.9123 120.632 81.35 120.06 81.662C119.497 81.9653 118.864 82.117 118.162 82.117ZM118.162 80.531C118.492 80.531 118.799 80.453 119.085 80.297C119.38 80.1323 119.614 79.8897 119.787 79.569C119.961 79.2483 120.047 78.8583 120.047 78.399C120.047 77.7143 119.865 77.19 119.501 76.826C119.146 76.4533 118.708 76.267 118.188 76.267C117.668 76.267 117.231 76.4533 116.875 76.826C116.529 77.19 116.355 77.7143 116.355 78.399C116.355 79.0837 116.524 79.6123 116.862 79.985C117.209 80.349 117.642 80.531 118.162 80.531ZM126.01 82.117C125.421 82.117 124.892 82.013 124.424 81.805C123.956 81.5883 123.584 81.298 123.306 80.934C123.038 80.57 122.89 80.167 122.864 79.725H124.697C124.732 80.0023 124.866 80.232 125.1 80.414C125.343 80.596 125.642 80.687 125.997 80.687C126.344 80.687 126.613 80.6177 126.803 80.479C127.003 80.3403 127.102 80.1627 127.102 79.946C127.102 79.712 126.981 79.5387 126.738 79.426C126.504 79.3047 126.127 79.1747 125.607 79.036C125.07 78.906 124.628 78.7717 124.281 78.633C123.943 78.4943 123.649 78.282 123.397 77.996C123.155 77.71 123.033 77.3243 123.033 76.839C123.033 76.4403 123.146 76.0763 123.371 75.747C123.605 75.4177 123.935 75.1577 124.359 74.967C124.793 74.7763 125.3 74.681 125.88 74.681C126.738 74.681 127.423 74.8977 127.934 75.331C128.446 75.7557 128.727 76.332 128.779 77.06H127.037C127.011 76.774 126.89 76.5487 126.673 76.384C126.465 76.2107 126.184 76.124 125.828 76.124C125.499 76.124 125.243 76.1847 125.061 76.306C124.888 76.4273 124.801 76.5963 124.801 76.813C124.801 77.0557 124.923 77.242 125.165 77.372C125.408 77.4933 125.785 77.619 126.296 77.749C126.816 77.879 127.245 78.0133 127.583 78.152C127.921 78.2907 128.212 78.5073 128.454 78.802C128.706 79.088 128.836 79.4693 128.844 79.946C128.844 80.362 128.727 80.7347 128.493 81.064C128.268 81.3933 127.939 81.6533 127.505 81.844C127.081 82.026 126.582 82.117 126.01 82.117Z" fill="white"/>
</svg>
